<svg xmlns="http://www.w3.org/2000/svg" viewBox="0 0 512 512">
<rect width="512" height="512" rx="96" fill="#081020"/><g transform="translate(56 56) scale(1.25)"><g fill="none" stroke="#D8B26E" stroke-width="10" stroke-linecap="round" stroke-linejoin="round">
<path d="M 245 14 L 115 14 A 91 91 0 0 0 24 105 A 91 91 0 0 0 115 196 L 205 196 A 19 19 0 0 1 224 215 A 19 19 0 0 1 205 234 L 75 234" stroke-dasharray="0.00 19.00 9.00 19.00 601.58 19.00 9.00 19.00 0.00 4000.00"/>
<path d="M 245 32 L 115 32 A 73 73 0 0 0 42 105 A 73 73 0 0 0 115 178 L 205 178 A 37 37 0 0 1 242 215 A 37 37 0 0 1 205 252 L 75 252" stroke-dasharray="0.00 19.00 9.00 19.00 601.58 19.00 9.00 19.00 0.00 4000.00"/>
<path d="M 245 50 L 115 50 A 55 55 0 0 0 60 105 A 55 55 0 0 0 115 160 L 205 160 A 55 55 0 0 1 260 215 A 55 55 0 0 1 205 270 L 75 270" stroke-dasharray="0.00 19.00 9.00 19.00 601.58 19.00 9.00 19.00 0.00 4000.00"/>
<path d="M 245 68 L 115 68 A 37 37 0 0 0 78 105 A 37 37 0 0 0 115 142 L 205 142 A 73 73 0 0 1 278 215 A 73 73 0 0 1 205 288 L 75 288" stroke-dasharray="0.00 19.00 9.00 19.00 601.58 19.00 9.00 19.00 0.00 4000.00"/>
<path d="M 245 86 L 115 86 A 19 19 0 0 0 96 105 A 19 19 0 0 0 115 124 L 205 124 A 91 91 0 0 1 296 215 A 91 91 0 0 1 205 306 L 75 306" stroke-dasharray="0.00 19.00 9.00 19.00 601.58 19.00 9.00 19.00 0.00 4000.00"/>
</g></g>
</svg>
